<svg xmlns="http://www.w3.org/2000/svg" width="31.73" height="31.73" viewBox="0 0 31.73 31.73">
  <path d="M11.334 17.39c.718.103 2.554-4.214 2.686-4.31.132-.096 2.776.113 2.427-1.295-.795.673-1.168-.056-1.132-.586.036-.532.71-1.66.886-1.583.178.077.483.705 1.12.123-.964.092-.737-1.317-.438-1.486.3-.168 1.463-.682 1.8-1.01s.363-1.357 1.05-1.13c.687.227.18 1.69.385 2.18s2.063 2.063 2.032 2.558c-.032.496-.813.407-.796 1.1 0 .28.487.488.5.815.014.327-.526.573-.526.573s.463.127.373.618c-.09.49-.684.342-.874.444-.09.05.91 1.146.166 1.973-.672.79-4.035-.042-4.682.21-1.217.472-2.225 2.113-1.554 2.89.67.776 2.985 3.28 3.586 5.362 1.03 2.728-1.496 7.49-2.91 4.036-2 1.346 2.183 6.29 8.05-1.15 4.494-6.05 2.296-17.062.968-19.536C23.124 5.714 16.942-2.83 10.308.952 2.056 5.46 5.98 16.367 11.334 17.39z"/>
</svg>
